<?xml version="1.0" encoding="UTF-8" standalone="no"?>
<svg width="320" height="650" viewBox="0 0 320 650" fill="none" xmlns="http://www.w3.org/2000/svg">
  <!-- Background -->
  <rect width="320" height="650" fill="#1A0F2E"/>
  
  <!-- Status bar -->
  <rect y="0" width="320" height="30" fill="#2A1A3E"/>
  <circle cx="300" cy="15" r="8" fill="#4CAF50"/>
  <rect x="10" y="14" width="40" height="2" rx="1" fill="#FFFFFF"/>
  <rect x="55" y="14" width="25" height="2" rx="1" fill="#FFFFFF"/>
  <rect x="250" y="14" width="15" height="2" rx="1" fill="#FFFFFF"/>
  <rect x="270" y="14" width="10" height="2" rx="1" fill="#FFFFFF"/>
  
  <!-- App header -->
  <rect y="30" width="320" height="60" fill="#2A1A3E"/>
  <text x="15" y="65" font-family="Arial" font-size="20" font-weight="bold" fill="#FFFFFF">Design Gallery</text>
  <circle cx="290" cy="60" r="20" fill="#AF52DE"/>
  <path d="M280 60 L290 50 L300 60 L290 70 Z" stroke="#FFFFFF" stroke-width="2" fill="none"/>
  
  <!-- Design elements -->
  <rect y="100" width="150" height="120" rx="10" fill="#3A2A4E"/>
  <rect x="15" y="115" width="120" height="20" rx="5" fill="#AF52DE" fill-opacity="0.5"/>
  <rect x="15" y="145" width="120" height="20" rx="5" fill="#AF52DE" fill-opacity="0.7"/>
  <rect x="15" y="175" width="120" height="20" rx="5" fill="#AF52DE" fill-opacity="0.9"/>
  
  <rect x="170" y="100" width="150" height="120" rx="10" fill="#3A2A4E"/>
  <circle cx="215" cy="125" r="15" fill="#AF52DE" fill-opacity="0.5"/>
  <circle cx="245" cy="125" r="15" fill="#AF52DE" fill-opacity="0.7"/>
  <circle cx="275" cy="125" r="15" fill="#AF52DE" fill-opacity="0.9"/>
  <rect x="200" y="160" width="90" height="40" rx="5" fill="#AF52DE" fill-opacity="0.6"/>
  
  <rect y="230" width="320" height="60" rx="10" fill="#3A2A4E"/>
  <text x="15" y="265" font-family="Arial" font-size="16" fill="#FFFFFF">Material 3 Components</text>
  <rect x="280" y="250" width="20" height="20" rx="10" fill="#AF52DE"/>
  <path d="M285 260 L290 265 L295 255" stroke="#FFFFFF" stroke-width="1.5" fill="none"/>
  
  <rect y="300" width="320" height="60" rx="10" fill="#3A2A4E"/>
  <text x="15" y="335" font-family="Arial" font-size="16" fill="#FFFFFF">Custom Icons</text>
  <rect x="280" y="320" width="20" height="20" rx="10" fill="#AF52DE"/>
  <path d="M285 330 L290 335 L295 325" stroke="#FFFFFF" stroke-width="1.5" fill="none"/>
  
  <!-- Icon grid -->
  <rect y="370" width="320" height="220" rx="10" fill="#3A2A4E"/>
  
  <!-- Icon rows -->
  <circle cx="40" cy="400" r="15" fill="#AF52DE" fill-opacity="0.8"/>
  <circle cx="80" cy="400" r="15" fill="#AF52DE" fill-opacity="0.8"/>
  <circle cx="120" cy="400" r="15" fill="#AF52DE" fill-opacity="0.8"/>
  <circle cx="160" cy="400" r="15" fill="#AF52DE" fill-opacity="0.8"/>
  <circle cx="200" cy="400" r="15" fill="#AF52DE" fill-opacity="0.8"/>
  <circle cx="240" cy="400" r="15" fill="#AF52DE" fill-opacity="0.8"/>
  <circle cx="280" cy="400" r="15" fill="#AF52DE" fill-opacity="0.8"/>
  
  <circle cx="40" cy="440" r="15" fill="#AF52DE" fill-opacity="0.8"/>
  <circle cx="80" cy="440" r="15" fill="#AF52DE" fill-opacity="0.8"/>
  <circle cx="120" cy="440" r="15" fill="#AF52DE" fill-opacity="0.8"/>
  <circle cx="160" cy="440" r="15" fill="#AF52DE" fill-opacity="0.8"/>
  <circle cx="200" cy="440" r="15" fill="#AF52DE" fill-opacity="0.8"/>
  <circle cx="240" cy="440" r="15" fill="#AF52DE" fill-opacity="0.8"/>
  <circle cx="280" cy="440" r="15" fill="#AF52DE" fill-opacity="0.8"/>
  
  <circle cx="40" cy="480" r="15" fill="#AF52DE" fill-opacity="0.8"/>
  <circle cx="80" cy="480" r="15" fill="#AF52DE" fill-opacity="0.8"/>
  <circle cx="120" cy="480" r="15" fill="#AF52DE" fill-opacity="0.8"/>
  <circle cx="160" cy="480" r="15" fill="#AF52DE" fill-opacity="0.8"/>
  <circle cx="200" cy="480" r="15" fill="#AF52DE" fill-opacity="0.8"/>
  <circle cx="240" cy="480" r="15" fill="#AF52DE" fill-opacity="0.8"/>
  <circle cx="280" cy="480" r="15" fill="#AF52DE" fill-opacity="0.8"/>
  
  <circle cx="40" cy="520" r="15" fill="#AF52DE" fill-opacity="0.8"/>
  <circle cx="80" cy="520" r="15" fill="#AF52DE" fill-opacity="0.8"/>
  <circle cx="120" cy="520" r="15" fill="#AF52DE" fill-opacity="0.8"/>
  <circle cx="160" cy="520" r="15" fill="#AF52DE" fill-opacity="0.8"/>
  <circle cx="200" cy="520" r="15" fill="#AF52DE" fill-opacity="0.8"/>
  <circle cx="240" cy="520" r="15" fill="#AF52DE" fill-opacity="0.8"/>
  <circle cx="280" cy="520" r="15" fill="#AF52DE" fill-opacity="0.8"/>
  
  <circle cx="40" cy="560" r="15" fill="#AF52DE" fill-opacity="0.8"/>
  <circle cx="80" cy="560" r="15" fill="#AF52DE" fill-opacity="0.8"/>
  <circle cx="120" cy="560" r="15" fill="#AF52DE" fill-opacity="0.8"/>
  <circle cx="160" cy="560" r="15" fill="#AF52DE" fill-opacity="0.8"/>
  <circle cx="200" cy="560" r="15" fill="#AF52DE" fill-opacity="0.8"/>
  <circle cx="240" cy="560" r="15" fill="#AF52DE" fill-opacity="0.8"/>
  <circle cx="280" cy="560" r="15" fill="#AF52DE" fill-opacity="0.8"/>
  
  <!-- Bottom navigation -->
  <rect y="600" width="320" height="50" fill="#2A1A3E"/>
  
  <!-- Nav icons -->
  <circle cx="60" cy="625" r="20" fill="none" stroke="#AAAAAA" stroke-width="2"/>
  <text x="60" y="630" font-family="Arial" font-size="14" fill="#AAAAAA" text-anchor="middle">Home</text>
  
  <circle cx="160" cy="625" r="20" fill="#AF52DE" stroke="#FFFFFF" stroke-width="2"/>
  <text x="160" y="630" font-family="Arial" font-size="14" fill="#FFFFFF" text-anchor="middle">Design</text>
  
  <circle cx="260" cy="625" r="20" fill="none" stroke="#AAAAAA" stroke-width="2"/>
  <text x="260" y="630" font-family="Arial" font-size="14" fill="#AAAAAA" text-anchor="middle">Settings</text>
</svg>
